<svg width="50" height="50" viewBox="0 0 50 50" fill="none" xmlns="http://www.w3.org/2000/svg">
<rect width="50" height="50" rx="7" fill="#DEE6EF"/>
<path d="M35.0833 26.8976H14.9167C14.4107 26.8976 14 26.487 14 25.981C14 25.475 14.4107 25.0643 14.9167 25.0643H35.0833C35.5893 25.0643 36 25.475 36 25.981C36 26.487 35.5893 26.8976 35.0833 26.8976Z" fill="#4614E8"/>
<path d="M35.0833 19.8698H14.9167C14.4107 19.8698 14 19.4591 14 18.9531C14 18.4471 14.4107 18.0365 14.9167 18.0365H35.0833C35.5893 18.0365 36 18.4471 36 18.9531C36 19.4591 35.5893 19.8698 35.0833 19.8698Z" fill="#4614E8"/>
<path d="M35.0833 33.9253H14.9167C14.4107 33.9253 14 33.5146 14 33.0086C14 32.5026 14.4107 32.0919 14.9167 32.0919H35.0833C35.5893 32.0919 36 32.5026 36 33.0086C36 33.5146 35.5893 33.9253 35.0833 33.9253Z" fill="#4614E8"/>
</svg>
